<mxfile host="app.diagrams.net" modified="2022-06-21T10:31:03.673Z" agent="5.0 (Windows NT 10.0; Win64; x64) AppleWebKit/537.36 (KHTML, like Gecko) Chrome/102.0.5005.124 Safari/537.36 Edg/102.0.1245.44" etag="JurnqiFBa-lIf3zt-Fat" version="20.0.1" type="github">
  <diagram id="Ckb2wa7dTxm9xzStYSq4" name="Page-1">
    <mxGraphModel dx="1422" dy="794" grid="1" gridSize="10" guides="1" tooltips="1" connect="1" arrows="1" fold="1" page="1" pageScale="1" pageWidth="827" pageHeight="1169" math="0" shadow="0">
      <root>
        <mxCell id="0" />
        <mxCell id="1" parent="0" />
        <mxCell id="3knh_2ArPd09gowecc_a-3" value="" style="edgeStyle=orthogonalEdgeStyle;rounded=0;orthogonalLoop=1;jettySize=auto;html=1;" edge="1" parent="1" source="3knh_2ArPd09gowecc_a-1" target="3knh_2ArPd09gowecc_a-2">
          <mxGeometry relative="1" as="geometry" />
        </mxCell>
        <mxCell id="3knh_2ArPd09gowecc_a-1" value="启动流程" style="whiteSpace=wrap;html=1;" vertex="1" parent="1">
          <mxGeometry x="310" y="120" width="120" height="60" as="geometry" />
        </mxCell>
        <mxCell id="3knh_2ArPd09gowecc_a-2" value="初始化全局设置" style="whiteSpace=wrap;html=1;" vertex="1" parent="1">
          <mxGeometry x="310" y="260" width="120" height="60" as="geometry" />
        </mxCell>
      </root>
    </mxGraphModel>
  </diagram>
</mxfile>
